{"title":"Marvels.Daredevil.S01.2160p.NF.WEBRip.DD5.1.x264-iON","uid":15566270,"size":209818701209,"categoryP":"video","categoryS":"hd___tv_shows","magnet":"?xt=urn:btih:37ae06c86bb27544cc9095af4194281a6581e7b8&amp;dn=Marvels.Daredevil.S01.2160p.NF.WEBRip.DD5.1.x264-iON&amp;tr=udp%3A%2F%2Ftracker.leechers-paradise.org%3A6969&amp;tr=udp%3A%2F%2Fzer0day.ch%3A1337&amp;tr=udp%3A%2F%2Fopen.demonii.com%3A1337&amp;tr=udp%3A%2F%2Ftracker.coppersurfer.tk%3A6969&amp;tr=udp%3A%2F%2Fexodus.desync.com%3A6969","seeders":1,"leechers":5,"uploader":"BreexeOX","files":13,"time":1471203911,"description":"General\r\nFormat                         : Matroska\r\nFormat version                 : Version 4 / Version 2\r\nFile size                      : 14.3 GiB\r\nDuration                       : 52mn 50s\r\nOverall bit rate               : 38.8 Mbps\r\nEncoded date                   : UTC 2015-09-18 08:17:33\r\nWriting application            : mkvmerge v8.3.0 ('Over the Horizon') 64bit\r\nWriting library                : libebml v1.3.1 + libmatroska v1.4.2\r\n\r\nVideo\r\nID                             : 1\r\nFormat                         : AVC\r\nFormat/Info                    : Advanced Video Codec\r\nFormat profile                 :   \r\nFormat settings, CABAC         : Yes\r\nFormat settings, ReFrames      : 5 frames\r\nCodec ID                       : V_MPEG4/ISO/AVC\r\nDuration                       : 52mn 50s\r\nBit rate                       : 38.2 Mbps\r\nWidth                          : 3 840 pixels\r\nHeight                         : 2 160 pixels\r\nDisplay aspect ratio           : 16:9\r\nFrame rate mode                : Constant\r\nFrame rate                     : 23.976 (24000/1001) fps\r\nColor space                    : YUV\r\nChroma subsampling             : 4:2:0\r\nBit depth                      : 8 bits\r\nScan type                      : Progressive\r\nBits/(Pixel*Frame)             : 0.192\r\nStream size                    : 14.1 GiB (98%)\r\nWriting library                : x264 core 148 r2597 e86f3a1\r\nDefault                        : Yes\r\nForced                         : No\r\nColor range                    : Limited\r\nColor primaries                : BT.709\r\nTransfer characteristics       : BT.709\r\nMatrix coefficients            : BT.709\r\n\r\nAudio\r\nID                             : 2\r\nFormat                         : AC-3\r\nFormat/Info                    : Audio Coding 3\r\nMode extension                 : CM (complete main)\r\nFormat settings, Endianness    : Big\r\nCodec ID                       : A_AC3\r\nDuration                       : 52mn 39s\r\nBit rate mode                  : Constant\r\nBit rate                       : 640 Kbps\r\nChannel(s)                     : 6 channels\r\nChannel positions              : Front: L C R, Side: L R, LFE\r\nSampling rate                  : 48.0 KHz\r\nFrame rate                     : 31.250 fps (1536 spf)\r\nCompression mode               : Lossy\r\nStream size                    : 241 MiB (2%)\r\nLanguage                       : English\r\nDefault                        : Yes\r\nForced                         : No\r\n\r\nText\r\nID                             : 3\r\nFormat                         : UTF-8\r\nCodec ID                       : S_TEXT/UTF8\r\nCodec ID/Info                  : UTF-8 Plain Text\r\nDuration                       : 51mn 22s\r\nBit rate                       : 64 bps\r\nCount of elements              : 733\r\nStream size                    : 24.4 KiB (0%)\r\nLanguage                       : English\r\nDefault                        : Yes\r\nForced                         : No","torrent":{"xt":"urn:btih:37ae06c86bb27544cc9095af4194281a6581e7b8","amp;dn":"Marvels.Daredevil.S01.2160p.NF.WEBRip.DD5.1.x264-iON","amp;tr":["udp%3A%2F%2Ftracker.leechers-paradise.org%3A6969","udp%3A%2F%2Fzer0day.ch%3A1337","udp%3A%2F%2Fopen.demonii.com%3A1337","udp%3A%2F%2Ftracker.coppersurfer.tk%3A6969","udp%3A%2F%2Fexodus.desync.com%3A6969"],"infoHash":"37ae06c86bb27544cc9095af4194281a6581e7b8","infoHashBuffer":{"type":"Buffer","data":[55,174,6,200,107,178,117,68,204,144,149,175,65,148,40,26,101,129,231,184]},"announce":[],"urlList":[]}}